<svg width="353" height="184" viewBox="0 0 353 184" fill="none" xmlns="http://www.w3.org/2000/svg">
<path fill-rule="evenodd" clip-rule="evenodd" d="M176.5 49.1429C171.954 49.1429 167.593 50.949 164.378 54.1639C161.163 57.3788 159.357 61.7391 159.357 66.2857V79.1429C159.357 81.4161 158.454 83.5963 156.847 85.2038C155.239 86.8112 153.059 87.7143 150.786 87.7143C148.512 87.7143 146.332 86.8112 144.725 85.2038C143.117 83.5963 142.214 81.4161 142.214 79.1429V66.2857C142.214 57.1926 145.827 48.4719 152.256 42.0421C158.686 35.6122 167.407 32 176.5 32C185.593 32 194.314 35.6122 200.744 42.0421C207.174 48.4719 210.786 57.1926 210.786 66.2857V79.1429C210.786 81.4161 209.883 83.5963 208.275 85.2038C206.668 86.8112 204.488 87.7143 202.214 87.7143C199.941 87.7143 197.761 86.8112 196.153 85.2038C194.546 83.5963 193.643 81.4161 193.643 79.1429V66.2857C193.643 61.7391 191.837 57.3788 188.622 54.1639C185.407 50.949 181.047 49.1429 176.5 49.1429Z" fill="#FC5E03"/>
<path d="M129.357 87.7143C129.357 84.3044 130.712 81.0341 133.123 78.6229C135.534 76.2118 138.804 74.8572 142.214 74.8572H210.786C214.196 74.8572 217.466 76.2118 219.877 78.6229C222.288 81.0341 223.643 84.3044 223.643 87.7143V139.143C223.643 142.553 222.288 145.823 219.877 148.234C217.466 150.645 214.196 152 210.786 152H142.214C138.804 152 135.534 150.645 133.123 148.234C130.712 145.823 129.357 142.553 129.357 139.143V87.7143Z" fill="#FECBAE"/>
<path d="M165.786 113.429C165.786 116.27 166.914 118.995 168.924 121.005C170.933 123.014 173.658 124.143 176.5 124.143C179.342 124.143 182.067 123.014 184.076 121.005C186.085 118.995 187.214 116.27 187.214 113.429C187.214 110.587 186.085 107.862 184.076 105.852C182.067 103.843 179.342 102.714 176.5 102.714C173.658 102.714 170.933 103.843 168.924 105.852C166.914 107.862 165.786 110.587 165.786 113.429Z" fill="#FC5E03"/>
</svg>
