<svg width="393" height="54" viewBox="0 0 393 54" fill="none" xmlns="http://www.w3.org/2000/svg">
<rect width="393" height="54" fill="white"/>
<path fill-rule="evenodd" clip-rule="evenodd" d="M32.6304 19.2348C32.9428 18.9224 33.4493 18.9224 33.7618 19.2348C34.0742 19.5472 34.0742 20.0537 33.7618 20.3662L27.1294 26.999L33.7657 33.6357C34.0781 33.9481 34.0781 34.4546 33.7657 34.767C33.4532 35.0795 32.9467 35.0794 32.6343 34.767L25.998 28.1304L19.3618 34.767C19.0494 35.0794 18.5429 35.0795 18.2304 34.767C17.918 34.4546 17.918 33.9481 18.2304 33.6357L24.8667 26.999L18.2343 20.3662C17.9219 20.0537 17.9219 19.5472 18.2343 19.2348C18.5468 18.9224 19.0533 18.9224 19.3657 19.2348L25.998 25.8676L32.6304 19.2348Z" fill="#424242"/>
<path d="M106.076 27.8223V29.5293H99.396V35.1514H97.355V29.5293H90.7495V27.8223H106.076ZM98.3755 18.9717C101.938 18.9902 104.424 20.4375 104.424 22.7383C104.424 25.0205 101.938 26.4492 98.3755 26.4492C94.7944 26.4492 92.3452 25.0205 92.3638 22.7383C92.3452 20.4375 94.7944 18.9902 98.3755 18.9717ZM98.3755 20.6416C96.0005 20.6416 94.4604 21.4209 94.479 22.7383C94.4604 24.0371 96.0005 24.8164 98.3755 24.8164C100.75 24.8164 102.291 24.0371 102.291 22.7383C102.291 21.4209 100.75 20.6416 98.3755 20.6416ZM121.161 18.3779V35.1699H119.12V18.3779H121.161ZM116.002 19.8438V26.1338H110.232V29.5107C112.876 29.4922 115.158 29.3623 117.765 28.917L117.951 30.6055C115.093 31.1064 112.588 31.1992 109.583 31.1992H108.117V24.501H113.906V21.5137H108.098V19.8438H116.002ZM131.384 28.7314C134.854 28.7314 136.988 29.9004 137.006 31.9229C136.988 33.9639 134.854 35.1514 131.384 35.1514C127.877 35.1514 125.707 33.9639 125.707 31.9229C125.707 29.9004 127.877 28.7314 131.384 28.7314ZM131.384 30.3457C129.083 30.3457 127.766 30.8838 127.766 31.9229C127.766 32.9619 129.083 33.5186 131.384 33.5186C133.685 33.5186 134.965 32.9619 134.965 31.9229C134.965 30.8838 133.685 30.3457 131.384 30.3457ZM136.839 18.3779V22.3857H139.177V24.1113H136.839V28.3232H134.78V18.3779H136.839ZM126.226 19.4355V21.6992H130.141V19.4355H132.182V27.2656H124.185V19.4355H126.226ZM126.226 25.6328H130.141V23.3135H126.226V25.6328ZM150.737 22.4043C150.737 25.5215 152.221 28.583 154.893 29.752L153.65 31.4033C151.748 30.4756 150.412 28.6943 149.698 26.5049C148.965 28.8149 147.601 30.7354 145.671 31.7188L144.373 30.0488C147.1 28.7686 148.622 25.54 148.64 22.4043V19.7324H150.737V22.4043ZM158.604 18.3779V35.1699H156.563V25.4658H153.038V23.7959H156.563V18.3779H158.604ZM174.914 18.3779V35.1699H172.835V18.3779H174.914ZM163.911 19.751V23.9443H167.974V19.751H170.015V31.2178H161.851V19.751H163.911ZM163.911 29.5293H167.974V25.5586H163.911V29.5293ZM186.046 20.6787C186.046 23.2764 188.588 25.874 192.095 26.4863L191.167 28.2119C188.356 27.6182 186.056 25.9204 184.97 23.666C183.857 25.9019 181.556 27.6089 178.754 28.2119L177.845 26.4863C181.315 25.8555 183.838 23.2578 183.857 20.6787V19.4355H186.046V20.6787ZM192.708 31.3105V33.0176H177.381V31.3105H192.708ZM212.264 18.3779V35.1699H210.186V18.3779H212.264ZM203.228 19.6025C205.751 19.6025 207.588 21.9033 207.607 25.5215C207.588 29.1768 205.751 31.459 203.228 31.459C200.686 31.459 198.849 29.1768 198.849 25.5215C198.849 21.9033 200.686 19.6025 203.228 19.6025ZM203.228 21.458C201.799 21.458 200.834 22.9609 200.834 25.5215C200.834 28.1006 201.799 29.6035 203.228 29.6035C204.638 29.6035 205.603 28.1006 205.603 25.5215C205.603 22.9609 204.638 21.458 203.228 21.458ZM230.021 26.4492V28.1006H214.732V26.4492H218.294V24.3154C217.033 23.7866 216.309 22.9424 216.309 21.8477C216.309 19.8438 218.666 18.6562 222.358 18.6562C226.05 18.6562 228.388 19.8438 228.407 21.8477C228.397 22.9517 227.674 23.7959 226.403 24.3154V26.4492H230.021ZM222.358 29.1211C225.976 29.1025 228.147 30.1787 228.166 32.1084C228.147 34.0566 225.976 35.1143 222.358 35.1143C218.703 35.1143 216.513 34.0566 216.513 32.1084C216.513 30.1787 218.703 29.1025 222.358 29.1211ZM222.358 30.6797C219.909 30.6797 218.591 31.1621 218.61 32.1084C218.591 33.0547 219.909 33.5557 222.358 33.5557C224.751 33.5557 226.087 33.0547 226.106 32.1084C226.087 31.1621 224.751 30.6797 222.358 30.6797ZM222.358 20.252C219.872 20.252 218.443 20.8086 218.461 21.8477C218.443 22.8682 219.872 23.4062 222.358 23.4062C224.826 23.4062 226.273 22.8682 226.273 21.8477C226.273 20.8086 224.826 20.252 222.358 20.252ZM220.373 26.4492H224.343V24.8535C223.74 24.937 223.072 24.9834 222.358 24.9834C221.644 24.9834 220.976 24.937 220.373 24.8535V26.4492ZM246.665 20.7158V22.3857H244.382V24.3154H246.665V26.041H244.382V28.2861H242.323V18.3779H244.382V20.7158H246.665ZM244.382 29.0098V35.1514H242.323V30.6797H233.212V29.0098H244.382ZM235.866 19.3428C238.445 19.3242 240.375 21.0127 240.393 23.3691C240.375 25.7627 238.445 27.4326 235.866 27.4326C233.268 27.4326 231.32 25.7627 231.338 23.3691C231.32 21.0127 233.268 19.3242 235.866 19.3428ZM235.866 21.0869C234.418 21.1055 233.342 21.9775 233.361 23.3691C233.342 24.7979 234.418 25.6885 235.866 25.6699C237.294 25.6885 238.371 24.7979 238.371 23.3691C238.371 21.9775 237.294 21.1055 235.866 21.0869ZM256.944 19.6211V20.623C256.925 21.7734 256.925 23.4248 256.536 25.5586L254.495 25.373C254.819 23.6382 254.884 22.3579 254.921 21.3281H248.39V19.6211H256.944ZM252.713 23.4434V26.7832C254.448 26.7183 256.229 26.5884 257.853 26.3564L257.964 27.8408C254.476 28.4717 250.524 28.5273 247.574 28.5459L247.388 26.8945C248.381 26.8853 249.494 26.876 250.672 26.8574V23.4434H252.713ZM260.952 18.3779V23.6104H263.123V25.3359H260.952V30.9395H258.836V18.3779H260.952ZM261.49 33.1475V34.8174H249.893V29.8262H251.971V33.1475H261.49ZM283.811 26.4121V28.0635H268.503V26.4121H275.146V24.8164H270.377V19.1387H281.956V20.7529H272.437V23.1836H282.048V24.8164H277.168V26.4121H283.811ZM276.129 29.0283C279.748 29.0283 281.918 30.123 281.937 32.0898C281.918 34.0381 279.748 35.1514 276.129 35.1514C272.474 35.1514 270.285 34.0381 270.285 32.0898C270.285 30.123 272.474 29.0283 276.129 29.0283ZM276.129 30.6055C273.68 30.6055 272.363 31.125 272.381 32.0898C272.363 33.0547 273.68 33.5557 276.129 33.5557C278.523 33.5557 279.859 33.0547 279.877 32.0898C279.859 31.125 278.523 30.6055 276.129 30.6055ZM290.361 19.5469C293.014 19.5283 294.962 21.2168 294.981 23.5918C294.962 25.9854 293.014 27.6553 290.361 27.6553C287.726 27.6553 285.759 25.9854 285.759 23.5918C285.759 21.2168 287.726 19.5283 290.361 19.5469ZM290.361 21.3281C288.895 21.3281 287.8 22.2002 287.8 23.5918C287.8 25.002 288.895 25.8555 290.361 25.8555C291.845 25.8555 292.958 25.002 292.958 23.5918C292.958 22.2002 291.845 21.3281 290.361 21.3281ZM298.896 18.3779V35.1699H296.836V18.3779H298.896ZM284.999 29.9746C288.023 29.9746 292.216 29.9375 295.834 29.418L296.001 30.9209C292.235 31.6445 288.208 31.6631 285.258 31.6631L284.999 29.9746Z" fill="black"/>
</svg>
