<svg width="20" height="20" viewBox="0 0 20 20" fill="none" xmlns="http://www.w3.org/2000/svg">
    <rect x="18.3333" y="1.66663" width="16.6667" height="16.6667" rx="8.33333" transform="rotate(90 18.3333 1.66663)" fill="#EAEAEA"/>
    <path fill-rule="evenodd" clip-rule="evenodd" d="M6.72071 5.77876C6.46036 5.51841 6.03825 5.51841 5.7779 5.77876C5.51755 6.03911 5.51755 6.46122 5.7779 6.72157L9.05715 10.0008L5.77921 13.2788C5.51886 13.5391 5.51886 13.9612 5.77921 14.2216C6.03956 14.4819 6.46167 14.4819 6.72201 14.2216L9.99996 10.9436L13.2779 14.2216C13.5383 14.4819 13.9604 14.4819 14.2207 14.2216C14.4811 13.9612 14.4811 13.5391 14.2207 13.2788L10.9428 10.0008L14.222 6.72157C14.4824 6.46122 14.4824 6.03911 14.222 5.77876C13.9617 5.51841 13.5396 5.51841 13.2792 5.77876L9.99996 9.05801L6.72071 5.77876Z" fill="#424242"/>
</svg>
