<svg width="25" height="24" viewBox="0 0 25 24" fill="none" xmlns="http://www.w3.org/2000/svg">
<rect width="20" height="20" rx="10" transform="matrix(1 0 0 -1 2.5 22)" fill="#0B78CB"/>
<path d="M12.3992 9.44102C13.062 9.44102 13.5992 8.90376 13.5992 8.24102C13.5992 7.57827 13.062 7.04102 12.3992 7.04102C11.7365 7.04102 11.1992 7.57827 11.1992 8.24102C11.1992 8.90376 11.7365 9.44102 12.3992 9.44102Z" fill="white"/>
<path d="M10.8992 10.4312C10.7888 10.4312 10.6992 10.5207 10.6992 10.6312V11.4312C10.6992 11.5416 10.7888 11.6312 10.8992 11.6312H11.6008C11.7112 11.6312 11.8008 11.7207 11.8008 11.8312V15.5938H10.7C10.5895 15.5938 10.5 15.6833 10.5 15.7937V16.5938C10.5 16.7042 10.5895 16.7937 10.7 16.7937H14.3C14.4105 16.7937 14.5 16.7042 14.5 16.5938V15.7937C14.5 15.6833 14.4105 15.5938 14.3 15.5938H13.6008V10.6312C13.6008 10.5207 13.5112 10.4312 13.4008 10.4312H10.8992Z" fill="white"/>
</svg>
