<svg width="20" height="20" viewBox="0 0 20 20" fill="none" xmlns="http://www.w3.org/2000/svg">
    <path fill-rule="evenodd" clip-rule="evenodd" d="M3.44283 2.49995C3.18248 2.2396 2.76037 2.2396 2.50002 2.49995C2.23967 2.7603 2.23967 3.18241 2.50002 3.44276L5.05659 5.99924C5.05641 5.99934 5.05624 5.99944 5.05606 5.99953L6.04441 6.98785C6.04459 6.98776 6.04477 6.98767 6.04495 6.98758L7.33908 8.28167C7.33898 8.28183 7.33887 8.282 7.33876 8.28216L8.32006 9.26342C8.32014 9.26323 8.32022 9.26305 8.3203 9.26286L10.7367 11.6792C10.7365 11.6792 10.7363 11.6793 10.7361 11.6794L11.7174 12.6607C11.7176 12.6606 11.7177 12.6604 11.7179 12.6603L12.6577 13.6001C12.6575 13.6002 12.6573 13.6002 12.6571 13.6003L13.7252 14.6684C13.7254 14.6683 13.7256 14.6682 13.7258 14.6682L16.5577 17.5C16.8181 17.7604 17.2402 17.7604 17.5005 17.5C17.7609 17.2397 17.7609 16.8175 17.5005 16.5572L3.44283 2.49995ZM1.6877 9.92056C2.05673 8.48586 3.10353 7.2486 4.46752 6.3538L5.43423 7.32049L5.39045 7.34713C4.18538 8.08614 3.35392 9.05608 3.03083 10.0725C3.49849 11.3214 5.50996 13.9168 10 13.9168C10.6835 13.9168 11.3089 13.8627 11.8799 13.7659L13.0011 14.8871C12.1197 15.1168 11.1215 15.2501 10 15.2501C4.6846 15.2501 2.18994 11.9911 1.69291 10.2718C1.65981 10.1573 1.65801 10.036 1.6877 9.92056ZM6.8327 10.0001C6.8327 9.61747 6.90057 9.25068 7.02492 8.91112L8.16678 10.0529C8.19425 11.0235 8.97603 11.8053 9.94659 11.8327L11.0885 12.9745C10.7489 13.0989 10.382 13.1668 9.99937 13.1668C8.25047 13.1668 6.8327 11.749 6.8327 10.0001ZM12.9739 11.0888L11.8319 9.94682C11.8042 8.97663 11.0228 8.1952 10.0526 8.16754L8.91061 7.02558C9.25011 6.90128 9.61682 6.83345 9.99937 6.83345C11.7483 6.83345 13.166 8.25121 13.166 10.0001C13.166 10.3826 13.0982 10.7493 12.9739 11.0888ZM10 6.08345C9.36962 6.08345 8.75045 6.1493 8.15638 6.27137L7.05683 5.17186C7.98629 4.89993 8.98174 4.75011 10 4.75011C13.872 4.75011 17.3555 6.94002 18.3008 9.88275C18.3382 9.99926 18.3428 10.1238 18.3142 10.2428C18.0464 11.3542 17.1855 12.7185 15.6274 13.7422L14.6609 12.7757C16.0078 11.9678 16.7196 10.8927 16.9681 10.1087C16.1552 7.93975 13.3676 6.08345 10 6.08345Z" fill="#616161"/>
</svg>
